<svg width="24" height="24" viewBox="0 0 24 24" fill="none" xmlns="http://www.w3.org/2000/svg">
<path d="M10.557 11.25C11.007 11.25 11.3715 11.5875 11.3632 12C11.3632 12.4125 11.0078 12.75 10.557 12.75C10.1145 12.75 9.75 12.4125 9.75 12C9.75 11.5875 10.1063 11.25 10.557 11.25ZM13.443 11.25C13.8938 11.25 14.25 11.5875 14.25 12C14.25 12.4125 13.8938 12.75 13.443 12.75C13.0005 12.75 12.6368 12.4125 12.6368 12C12.6368 11.5875 12.9922 11.25 13.443 11.25ZM17.1683 4.5C18.0405 4.5 18.75 5.2245 18.75 6.12225V20.25L17.0917 18.7537L16.158 17.8717L15.1702 16.9342L15.5798 18.3915H6.83175C5.9595 18.3915 5.25 17.667 5.25 16.7692V6.12225C5.25 5.2245 5.9595 4.5 6.83175 4.5H17.1675H17.1683ZM14.1908 14.7847C15.8955 14.73 16.5518 13.5877 16.5518 13.5877C16.5518 11.052 15.4403 8.99625 15.4403 8.99625C14.3302 8.1465 13.2727 8.16975 13.2727 8.16975L13.1648 8.29575C14.4765 8.70525 15.0855 9.29625 15.0855 9.29625C14.3693 8.89274 13.58 8.63575 12.7635 8.54025C12.2456 8.48175 11.7224 8.48679 11.2057 8.55525C11.1592 8.55525 11.1202 8.5635 11.0745 8.571C10.8045 8.595 10.1482 8.697 9.32325 9.0675C9.03825 9.201 8.868 9.29625 8.868 9.29625C8.868 9.29625 9.5085 8.67375 10.8968 8.26425L10.8195 8.16975C10.8195 8.16975 9.76275 8.1465 8.652 8.997C8.652 8.997 7.54125 11.052 7.54125 13.5877C7.54125 13.5877 8.18925 14.7292 9.894 14.7847C9.894 14.7847 10.179 14.4307 10.4115 14.1315C9.43125 13.8315 9.0615 13.2015 9.0615 13.2015C9.0615 13.2015 9.138 13.257 9.27675 13.3358C9.28425 13.3433 9.29175 13.3515 9.3075 13.359C9.33075 13.3755 9.354 13.383 9.37725 13.3988C9.57 13.509 9.76275 13.5953 9.93975 13.6665C10.2563 13.7925 10.6342 13.9185 11.0745 14.0055C11.734 14.1348 12.4121 14.1373 13.0725 14.013C13.4572 13.9443 13.8325 13.8308 14.1908 13.6747C14.4607 13.572 14.7615 13.422 15.078 13.2098C15.078 13.2098 14.6925 13.8555 13.6815 14.1473C13.9132 14.4465 14.1915 14.7847 14.1915 14.7847H14.1908Z" fill="white"/>
</svg>
