<svg width="114" height="40" viewBox="0 0 114 40" fill="none" xmlns="http://www.w3.org/2000/svg">
<path fill-rule="evenodd" clip-rule="evenodd" d="M23.0866 17.4078C23.6896 18.8637 24 20.4241 24 22V24.9091L0 24.9091V22C0 20.4241 0.310389 18.8637 0.913445 17.4078C1.5165 15.9519 2.40042 14.629 3.51472 13.5147C4.62902 12.4004 5.95189 11.5165 7.4078 10.9134C8.86371 10.3104 10.4241 10 12 10C13.5759 10 15.1363 10.3104 16.5922 10.9134C18.0481 11.5165 19.371 12.4004 20.4853 13.5147C21.5996 14.629 22.4835 15.9519 23.0866 17.4078ZM12 12.2273C10.7166 12.2273 9.44582 12.4801 8.26014 12.9712C7.07446 13.4623 5.99712 14.1822 5.08964 15.0896C4.18216 15.9971 3.4623 17.0745 2.97118 18.2601C2.48005 19.4458 2.22727 20.7166 2.22727 22H5.22727C5.22727 21.1106 5.40246 20.2299 5.74282 19.4082C6.08318 18.5865 6.58205 17.8399 7.21096 17.211C7.83987 16.5821 8.58649 16.0832 9.40819 15.7428C10.2299 15.4025 11.1106 15.2273 12 15.2273C12.8894 15.2273 13.7701 15.4025 14.5918 15.7428C15.4135 16.0832 16.1601 16.5821 16.789 17.211C17.4179 17.8399 17.9168 18.5865 18.2572 19.4082C18.5975 20.2299 18.7727 21.1106 18.7727 22H21.7727C21.7727 20.7166 21.52 19.4458 21.0288 18.2601C20.5377 17.0745 19.8178 15.9971 18.9104 15.0896C18.0029 14.1822 16.9255 13.4623 15.7399 12.9712C14.5542 12.4801 13.2834 12.2273 12 12.2273ZM16.1155 20.2953C16.3393 20.8358 16.4545 21.415 16.4545 22H7.54546C7.54546 21.415 7.66068 20.8358 7.88454 20.2953C8.1084 19.7549 8.43652 19.2638 8.85016 18.8502C9.2638 18.4365 9.75487 18.1084 10.2953 17.8845C10.8358 17.6607 11.415 17.5455 12 17.5455C12.585 17.5455 13.1642 17.6607 13.7047 17.8845C14.2451 18.1084 14.7362 18.4365 15.1498 18.8502C15.5635 19.2638 15.8916 19.7549 16.1155 20.2953Z" fill="#F55E41"/>
<path d="M0 27.8182V30H24V27.8182L0 27.8182Z" fill="#F55E41"/>
<path d="M33.968 28H37.16V21.472H39.56C43.232 21.472 45.848 19.864 45.848 16.24V16.144C45.848 12.544 43.328 10.84 39.488 10.84H33.968V28ZM37.16 19.168V13.312H39.488C41.528 13.312 42.728 14.104 42.728 16.144V16.24C42.728 18.136 41.6 19.168 39.488 19.168H37.16ZM52.073 28.24C54.113 28.24 55.433 27.256 56.057 26.032V28H58.961V15.448H56.057V22.912C56.057 24.904 54.689 25.912 53.129 25.912C51.449 25.912 50.657 25.048 50.657 23.152V15.448H47.753V23.488C47.753 26.824 49.601 28.24 52.073 28.24ZM61.9243 28H64.8283V21.472C64.8283 18.808 66.3643 17.992 68.9083 17.968V15.256C66.7963 15.28 65.6203 16.216 64.8283 17.8V15.448H61.9243V28ZM75.2793 28.24C78.4953 28.24 80.2953 26.776 80.2953 24.232C80.2953 21.568 78.5433 20.848 75.5913 20.392C73.5993 20.056 72.9993 19.696 72.9993 18.784C72.9993 17.896 73.7433 17.296 74.9913 17.296C76.3353 17.296 76.9833 17.824 77.2233 18.976H79.9113C79.5993 16.144 77.5593 15.184 74.9913 15.184C72.6393 15.184 70.2873 16.432 70.2873 18.952C70.2873 21.304 71.5113 22.24 74.8233 22.768C76.6713 23.08 77.5113 23.464 77.5113 24.496C77.5113 25.552 76.8153 26.104 75.2553 26.104C73.5513 26.104 72.9033 25.36 72.7593 24.088H70.0233C70.1433 26.752 72.0393 28.24 75.2793 28.24ZM87.9787 25.984C85.7707 25.984 84.4987 24.376 84.4987 21.808V21.616C84.4987 19.024 85.8187 17.464 87.9787 17.464C90.1387 17.464 91.4347 19.048 91.4347 21.64V21.808C91.4347 24.376 90.1387 25.984 87.9787 25.984ZM87.9547 28.24C91.6507 28.24 94.4107 25.696 94.4107 21.784V21.592C94.4107 17.752 91.6507 15.184 87.9787 15.184C84.2827 15.184 81.5227 17.776 81.5227 21.664V21.856C81.5227 25.672 84.2587 28.24 87.9547 28.24ZM96.5546 28H99.4586V20.608C99.4586 18.616 100.779 17.608 102.411 17.608C104.139 17.608 104.907 18.472 104.907 20.368V28H107.811V20.104C107.811 16.648 106.035 15.184 103.515 15.184C101.451 15.184 100.059 16.216 99.4586 17.44V15.448H96.5546V28Z" fill="white"/>
</svg>
