<svg width="40" height="40" viewBox="0 0 40 40" fill="none" xmlns="http://www.w3.org/2000/svg">
<g clip-path="url(#clip0_214_11)">
<path d="M11.75 23.5351L8.21667 27.0717L12.93 31.7851L31.785 12.9284L27.0717 8.21674L23.5333 11.7501L25.8917 14.1067L23.5333 16.4667L21.1767 14.1084L18.82 16.4667L21.1767 18.8234L18.82 21.1801L16.4633 18.8234L14.105 21.1801L16.4633 23.5367L14.105 25.8951L11.75 23.5334V23.5351ZM28.25 4.68007L35.32 11.7501C35.6325 12.0626 35.808 12.4865 35.808 12.9284C35.808 13.3703 35.6325 13.7942 35.32 14.1067L14.1067 35.3201C13.7941 35.6325 13.3703 35.8081 12.9283 35.8081C12.4864 35.8081 12.0625 35.6325 11.75 35.3201L4.68 28.2501C4.36755 27.9375 4.19202 27.5137 4.19202 27.0717C4.19202 26.6298 4.36755 26.206 4.68 25.8934L25.8933 4.68007C26.2059 4.36762 26.6297 4.1921 27.0717 4.1921C27.5136 4.1921 27.9375 4.36762 28.25 4.68007ZM23.5333 30.6051L25.8917 28.2484L29.6283 31.9867H31.985V29.6301L28.2483 25.8917L30.605 23.5351L35 27.9284V35.0001H27.93L23.535 30.6051H23.5333ZM9.39333 16.4634L4.67833 11.7501C4.52337 11.5953 4.40044 11.4115 4.31657 11.2091C4.23269 11.0068 4.18952 10.7899 4.18952 10.5709C4.18952 10.3519 4.23269 10.135 4.31657 9.93267C4.40044 9.73034 4.52337 9.54653 4.67833 9.39174L9.39333 4.67841C9.70588 4.36596 10.1297 4.19043 10.5717 4.19043C11.0136 4.19043 11.4375 4.36596 11.75 4.67841L16.4667 9.39174L14.1067 11.7501L10.5717 8.21341L8.215 10.5717L11.75 14.1051L9.39333 16.4634Z" fill="#9F9FAC"/>
</g>
<defs>
<clipPath id="clip0_214_11">
<rect width="40" height="40" fill="white"/>
</clipPath>
</defs>
</svg>
