<svg width="24" height="24" viewBox="0 0 24 24" fill="none" xmlns="http://www.w3.org/2000/svg">
<path d="M19.6212 7.24219C19.0487 7.49546 18.4415 7.66179 17.8197 7.73569C18.475 7.34376 18.9655 6.72695 19.1997 6.00019C18.5847 6.36619 17.9105 6.62269 17.2077 6.76144C16.7357 6.25637 16.11 5.92141 15.428 5.80863C14.7459 5.69584 14.0457 5.81156 13.4362 6.13778C12.8267 6.464 12.342 6.98245 12.0576 7.61253C11.7731 8.24262 11.7048 8.94902 11.8632 9.62194C10.6161 9.55943 9.39598 9.23533 8.2822 8.67069C7.16842 8.10604 6.18583 7.31347 5.39823 6.34444C5.11945 6.82328 4.97295 7.36761 4.97373 7.92169C4.97373 9.00919 5.52723 9.96994 6.36873 10.5324C5.87074 10.5168 5.38371 10.3823 4.94823 10.1402V10.1792C4.94838 10.9035 5.19901 11.6054 5.65762 12.166C6.11623 12.7266 6.7546 13.1113 7.46448 13.2549C7.0022 13.3802 6.51746 13.3987 6.04698 13.3089C6.24713 13.9324 6.63724 14.4776 7.16268 14.8683C7.68812 15.259 8.32258 15.4755 8.97723 15.4877C8.32659 15.9987 7.58162 16.3764 6.78489 16.5993C5.98817 16.8222 5.15533 16.8859 4.33398 16.7867C5.76776 17.7088 7.43681 18.1983 9.14148 18.1967C14.9112 18.1967 18.0665 13.4169 18.0665 9.27169C18.0665 9.13669 18.0627 9.00019 18.0567 8.86669C18.6709 8.42281 19.2009 7.87295 19.622 7.24294L19.6212 7.24219Z" fill="white"/>
</svg>
